# xmcd CD database file
#
# Track frame offsets:
#	150
#	18368
#	36213
#	61693
#	78458
#	105628
#	136468
#	156278
#	172000
#	181098
#	196215
#	208463
#
# Disc length: 2961 seconds
#
# Revision: 0
# Processed by: cddbd v1.4PL0 Copyright (c) Steve Scherf et al.
# Submitted via: CDex 1.51
#
DISCID=a10b8f0c
DTITLE=Laurie Riley and Michael MacBean - Double Image
DYEAR=1993
DGENRE=New Age
TTITLE0=Are You Sleeping Maggie
TTITLE1=Dinny Delaney's
TTITLE2=Saguaro
TTITLE3=Slides
TTITLE4=Monaghan's Jazz
TTITLE5=Refraction
TTITLE6=Suite
TTITLE7=JB Air
TTITLE8=Pipe On The Hob
TTITLE9=Planxtys Drew and Wilkinson
TTITLE10=Keegan's Waltz
TTITLE11=Greyhound
EXTD=YEAR: 1993
EXTT0=
EXTT1=
EXTT2=
EXTT3=
EXTT4=
EXTT5=
EXTT6=
EXTT7=
EXTT8=
EXTT9=
EXTT10=
EXTT11=
PLAYORDER=
